<?xml version="1.0" encoding="UTF-8"?>
<!DOCTYPE svg PUBLIC "-//W3C//DTD SVG 1.1//EN" "http://www.w3.org/Graphics/SVG/1.1/DTD/svg11.dtd">
<!-- Creator: CorelDRAW 2020 -->
<svg xmlns="http://www.w3.org/2000/svg" xml:space="preserve" width="14.0927mm" height="11.1751mm" version="1.1" style="shape-rendering:geometricPrecision; text-rendering:geometricPrecision; image-rendering:optimizeQuality; fill-rule:evenodd; clip-rule:evenodd"
viewBox="0 0 75.94 60.22"
 xmlns:xlink="http://www.w3.org/1999/xlink"
 xmlns:xodm="http://www.corel.com/coreldraw/odm/2003">
 <defs>
  <style type="text/css">
   <![CDATA[
    .fil1 {fill:#B41F6A}
    .fil0 {fill:#ED2D60}
   ]]>
  </style>
    <clipPath id="id0">
     <path d="M-0 0.13l75.94 -0.13 0 60.09 -75.94 0.13 0 -60.09z"/>
    </clipPath>
 </defs>
 <g id="Layer_x0020_1">
  <metadata id="CorelCorpID_0Corel-Layer"/>
  <g id="_171714208">
   <g style="clip-path:url(#id0)">
    <image x="-0" y="0" width="75.94" height="60.22" xlink:href="logo_Images\logo_ImgID1.png"/>
   </g>
  </g>
  <g id="_171717448">
   <path class="fil0" d="M15.12 56.23c-0.19,-0.3 -0.11,-1.09 -0.11,-1.45l0 -11.52c0,-4.28 -0.17,-8.92 0.01,-13.16l11.44 6.57c1.17,0.67 11.18,6.37 11.39,6.66 0.49,0.12 10.79,6.07 11.56,6.5 1.91,1.07 3.76,2.17 5.7,3.25 0.97,0.53 1.91,1.07 2.88,1.64 0.76,0.45 2.1,1.27 2.86,1.58l-0 -26.2c-0.57,0.17 -18.01,10.35 -19.93,11.47 -0.77,0.45 -2.24,1.39 -2.99,1.66 0,-1.7 -0.12,-12.39 0.07,-13.12 -0.5,-0.1 -7.55,-4.29 -8.61,-4.9 -2.85,-1.64 -5.61,-3.29 -8.46,-4.91 -2.9,-1.64 -5.69,-3.27 -8.53,-4.94 -1.45,-0.85 -2.8,-1.63 -4.23,-2.46l-4.25 -2.42 -0 39.15c0.07,0.27 8.39,5.07 9.88,5.98 0.53,0.32 1.04,0.74 1.32,0.62z"/>
   <path class="fil1" d="M38 30.1c-0.18,0.72 -0.07,11.42 -0.07,13.12 0.75,-0.27 2.21,-1.21 2.99,-1.66 1.93,-1.12 19.36,-11.3 19.93,-11.47l0 26.2c0.41,-0.17 1,-0.57 1.4,-0.8 1.49,-0.86 9.72,-5.59 9.8,-5.86l-0.05 -39.16 -33.99 19.63z"/>
   <path class="fil1" d="M15.12 56.23l22.73 -12.9c-0.21,-0.28 -10.22,-5.99 -11.39,-6.66l-11.44 -6.57c-0.18,4.23 -0.01,8.88 -0.01,13.16l0 11.52c-0,0.36 -0.08,1.15 0.11,1.45z"/>
   <path class="fil0" d="M37.89 17.06c0.22,0.04 5.12,-2.85 5.68,-3.19 0.99,-0.58 1.88,-1.08 2.87,-1.65 0.59,-0.35 2.46,-1.32 2.82,-1.67 -0.29,-0.26 -1.01,-0.63 -1.38,-0.84l-4.31 -2.48c-0.7,-0.39 -5.45,-3.23 -5.66,-3.19l-0.01 13.02z"/>
   <polygon class="fil1" points="37.89,17.06 37.9,4.04 26.69,10.51 "/>
  </g>
 </g>
</svg>
